<?xml version="1.0" standalone="no"?>
<!DOCTYPE svg PUBLIC "-//W3C//DTD SVG 20010904//EN"
 "http://www.w3.org/TR/2001/REC-SVG-20010904/DTD/svg10.dtd">
<svg version="1.0" xmlns="http://www.w3.org/2000/svg"
 width="16.000000pt" height="16.000000pt" viewBox="0 0 16.000000 16.000000"
 preserveAspectRatio="xMidYMid meet">
<metadata>
Created by potrace 1.11, written by Peter Selinger 2001-2013
</metadata>
<g transform="translate(0.000000,16.000000) scale(0.001923,-0.001923)"
fill="#000000" stroke="none">
<path d="M0 4160 l0 -2560 694 0 693 0 1 288 c0 158 -1 294 -4 302 -3 13 -47
15 -319 15 -173 0 -316 2 -316 5 -1 3 -2 881 -3 1953 -1 1724 1 1947 14 1948
8 1 152 2 320 3 l305 1 2 303 1 302 -694 0 -694 0 0 -2560z"/>
<path d="M1706 6353 l0 -368 570 -5 569 -5 0 -1722 0 -1723 442 0 c347 0 443
3 444 13 1 6 2 782 3 1722 l1 1710 568 3 567 2 0 125 c1 161 1 501 0 565 l0
50 -1582 0 -1583 0 1 -367z"/>
<path d="M5082 6418 l3 -303 300 -1 c165 -1 307 -2 317 -3 16 -1 18 -118 19
-936 0 -285 0 -1274 0 -1285 0 -8 -1 -389 -1 -847 -1 -625 -5 -832 -13 -835
-7 -2 -150 -4 -319 -4 -320 1 -315 2 -309 -36 1 -6 1 -135 0 -208 0 -8 0 -33
1 -55 0 -22 -1 -49 -3 -60 -2 -11 -1 -34 4 -52 4 -18 4 -35 0 -37 -3 -2 -5
-38 -3 -80 l4 -76 692 0 693 0 0 2560 0 2560 -694 0 -693 0 2 -302z"/>
<path d="M7687 5794 c-1 -1 -24 -3 -52 -5 -82 -5 -209 -48 -257 -87 -86 -71
-130 -147 -152 -264 -13 -70 -14 -247 -1 -268 3 -6 9 -22 11 -37 8 -40 51
-125 82 -158 56 -61 153 -122 207 -131 11 -2 37 -7 57 -13 48 -11 233 -11 273
1 16 5 39 11 50 13 49 11 145 68 186 112 38 40 99 142 102 170 0 4 6 33 12 63
6 30 10 89 10 130 -4 172 -62 298 -180 390 -31 24 -114 57 -175 69 -50 10
-167 20 -173 15z"/>
<path d="M7648 3424 c-2 -1 -25 -5 -53 -8 -245 -32 -386 -211 -380 -481 4
-151 34 -243 108 -329 85 -98 199 -145 364 -151 133 -4 279 30 341 79 132 105
184 218 185 401 0 278 -130 441 -383 482 -30 5 -179 11 -182 7z"/>
</g>
</svg>
