<?xml version="1.0" encoding="UTF-8" standalone="no"?>
<svg width="52px" height="32px" viewBox="0 0 52 32" version="1.1" xmlns="http://www.w3.org/2000/svg" xmlns:xlink="http://www.w3.org/1999/xlink">
    <!-- Generator: Sketch 42 (36781) - http://www.bohemiancoding.com/sketch -->
    <title>[T]:</title>
    <desc>Created with Sketch.</desc>
    <defs></defs>
    <g id="Design" stroke="none" stroke-width="1" fill="none" fill-rule="evenodd">
        <g id="landing-/-fullscreen" transform="translate(-64.000000, -64.000000)" fill="#FFFFFF">
            <path d="M72.6718928,96 L64,96 L64,64 L72.6718928,64 L72.6718928,67.7805151 L68.6584548,67.7805151 L68.6584548,92.2194849 L72.6718928,92.2194849 L72.6718928,96 Z M87.3340809,90.1948497 L81.7797693,90.1948497 L81.7797693,68.6226205 L74.6666669,68.6226205 L74.6666669,64 L94.4471833,64 L94.4471833,68.6226205 L87.3340809,68.6226205 L87.3340809,90.1948497 Z M95.7491613,92.2194849 L99.7446822,92.2194849 L99.7446822,67.7805151 L95.7491613,67.7805151 L95.7491613,64 L104.421054,64 L104.421054,96 L95.7491613,96 L95.7491613,92.2194849 Z M109.079509,87.6326988 C109.079509,86.6293343 109.348263,85.8708499 109.88578,85.3572228 C110.423297,84.8435958 111.20567,84.5867861 112.232925,84.5867861 C113.224344,84.5867861 113.991787,84.8495681 114.535276,85.37514 C115.078765,85.9007118 115.350506,86.6532239 115.350506,87.6326988 C115.350506,88.5763392 115.075779,89.3198928 114.526318,89.8633819 C113.976856,90.406871 113.212399,90.6786114 112.232925,90.6786114 C111.22956,90.6786114 110.453159,90.4128433 109.903697,89.881299 C109.354236,89.3497547 109.079509,88.6002288 109.079509,87.6326988 Z M109.079509,72.8331467 C109.079509,71.8297822 109.348263,71.0712978 109.88578,70.5576708 C110.423297,70.0440437 111.20567,69.787234 112.232925,69.787234 C113.224344,69.787234 113.991787,70.050016 114.535276,70.5755879 C115.078765,71.1011598 115.350506,71.8536718 115.350506,72.8331467 C115.350506,73.8006767 115.072793,74.5502026 114.517359,75.0817469 C113.961925,75.6132912 113.200455,75.8790594 112.232925,75.8790594 C111.22956,75.8790594 110.453159,75.6162774 109.903697,75.0907055 C109.354236,74.5651336 109.079509,73.8126215 109.079509,72.8331467 Z" id="[T]:"></path>
        </g>
    </g>
</svg>